<svg xmlns="http://www.w3.org/2000/svg" viewBox="0 0 200 200" width="200" height="200"><defs><mask id="mC7" maskUnits="userSpaceOnUse" x="-80" y="-80" width="360" height="360"><path d="M 100,54.910 A 35.5,35.5 0 0 0 29.000,75.500 C 29.000,106.740 73.020,132.300 100,166.380 C 126.980,132.300 171.000,106.740 171.000,75.500 A 35.5,35.5 0 0 0 100,54.910 Z" fill="#fff"/><polygon points="97.13,112.03 92.61,111.16 49.84,326.96 55.94,328.15" fill="#000"/><polygon points="88.79,107.18 85.77,103.71 -80.79,247.44 -76.72,252.13" fill="#000"/><polygon points="85.21,96.68 85.45,92.08 -134.21,79.77 -134.53,85.97" fill="#000"/><polygon points="89.20,87.36 92.33,84.00 -68.02,-66.63 -72.25,-62.09" fill="#000"/><polygon points="107.22,84.56 111.25,86.79 218.61,-105.23 213.18,-108.24" fill="#000"/><polygon points="113.85,92.23 115.50,96.53 321.17,18.44 318.95,12.64" fill="#000"/><polygon points="113.62,103.33 111.82,107.57 314.02,194.27 316.45,188.55" fill="#000"/><polygon points="107.14,110.48 103.12,112.71 209.07,305.52 214.50,302.51" fill="#000"/></mask></defs><g mask="url(#mC7)"><path d="M 100,54.910 A 35.5,35.5 0 0 0 29.000,75.500 C 29.000,106.740 73.020,132.300 100,166.380 C 126.980,132.300 171.000,106.740 171.000,75.500 A 35.5,35.5 0 0 0 100,54.910 Z" fill="#A3121C"/><polygon points="100.0,97.5 -2.6,379.4 -88.8,330.6 -154.4,256.5" fill="#A3121C"/><polygon points="100.0,97.5 -154.4,256.5 -195.4,149.6 -193.4,35.1" fill="#7E0F17"/><polygon points="100.0,97.5 -193.4,35.1 -154.4,-61.5 -84.7,-138.9" fill="#A3121C"/><polygon points="100.0,97.5 -84.7,-138.9 100.0,-202.5 284.7,-138.9" fill="#7E0F17"/><polygon points="100.0,97.5 284.7,-138.9 354.4,-61.5 393.4,35.1" fill="#A3121C"/><polygon points="100.0,97.5 393.4,35.1 395.4,149.6 354.4,256.5" fill="#7E0F17"/><polygon points="100.0,97.5 354.4,256.5 288.8,330.6 202.6,379.4" fill="#A3121C"/><polygon points="100.0,97.5 202.6,379.4 100.0,397.5 -2.6,379.4" fill="#7E0F17"/><circle cx="100.00" cy="97.50" r="15.5" fill="#A3121C"/></g></svg>