<svg xmlns="http://www.w3.org/2000/svg" viewBox="0 0 200 200" width="200" height="200"><defs><mask id="mC8" maskUnits="userSpaceOnUse" x="-80" y="-80" width="360" height="360"><path d="M 100,54.910 A 35.5,35.5 0 0 0 29.000,75.500 C 29.000,106.740 73.020,132.300 100,166.380 C 126.980,132.300 171.000,106.740 171.000,75.500 A 35.5,35.5 0 0 0 100,54.910 Z" fill="#fff"/><polygon points="93.46,107.93 89.57,104.04 -66.77,258.83 -61.33,264.27" fill="#000"/><polygon points="89.57,90.96 93.46,87.07 -61.33,-69.27 -66.77,-63.83" fill="#000"/><polygon points="106.54,87.07 110.43,90.96 266.77,-63.83 261.33,-69.27" fill="#000"/><polygon points="110.43,104.04 106.54,107.93 261.33,264.27 266.77,258.83" fill="#000"/></mask></defs><g mask="url(#mC8)"><path d="M 100,54.910 A 35.5,35.5 0 0 0 29.000,75.500 C 29.000,106.740 73.020,132.300 100,166.380 C 126.980,132.300 171.000,106.740 171.000,75.500 A 35.5,35.5 0 0 0 100,54.910 Z" fill="#A3121C"/><polygon points="100.0,97.5 -112.1,309.6 -200.0,97.5 -112.1,-114.6" fill="#7E0F17"/><polygon points="100.0,97.5 -112.1,-114.6 100.0,-202.5 312.1,-114.6" fill="#A3121C"/><polygon points="100.0,97.5 312.1,-114.6 400.0,97.5 312.1,309.6" fill="#7E0F17"/><polygon points="100.0,97.5 312.1,309.6 100.0,397.5 -112.1,309.6" fill="#A3121C"/><circle cx="100.00" cy="97.50" r="12.5" fill="#A3121C"/></g></svg>