<svg xmlns="http://www.w3.org/2000/svg" viewBox="0 0 200 200" width="200" height="200"><defs><clipPath id="hX2luz"><path d="M 100,44.480 A 44.0,44.0 0 0 0 12.000,70.000 C 12.000,108.720 57.760,122.800 100,170.320 C 142.240,122.800 188.000,108.720 188.000,70.000 A 44.0,44.0 0 0 0 100,44.480 Z"/></clipPath><mask id="gX2luz" maskUnits="userSpaceOnUse" x="-400" y="-400" width="1000" height="1000"><rect x="-400" y="-400" width="1000" height="1000" fill="#fff"/><polygon points="87.50,75.00 -75.19,-290.42 275.19,-290.42 112.50,75.00 507.58,12.43 503.76,187.17 112.50,104.00 216.03,490.37 -16.03,490.37 87.50,104.00 -303.76,187.17 -307.58,12.43" fill="#000" stroke="#000" stroke-width="6.8" stroke-linejoin="miter"/></mask><clipPath id="ulX2luz"><polygon points="87.50,75.00 -75.19,-290.42 -400.00,-400.00 -307.58,12.43"/></clipPath><clipPath id="urX2luz"><polygon points="112.50,75.00 275.19,-290.42 600.00,-400.00 507.58,12.43"/></clipPath><clipPath id="llX2luz"><polygon points="87.50,104.00 -16.03,490.37 -400.00,600.00 -303.76,187.17"/></clipPath><clipPath id="lrX2luz"><polygon points="112.50,104.00 216.03,490.37 600.00,600.00 503.76,187.17"/></clipPath></defs><g transform="translate(0,9.0)"><g transform="translate(-2.40,-1.92)"><g clip-path="url(#ulX2luz)"><g mask="url(#gX2luz)"><path d="M 100,44.480 A 44.0,44.0 0 0 0 12.000,70.000 C 12.000,108.720 57.760,122.800 100,170.320 C 142.240,122.800 188.000,108.720 188.000,70.000 A 44.0,44.0 0 0 0 100,44.480 Z" fill="#A3121C"/></g></g></g><g transform="translate(2.40,-1.92)"><g clip-path="url(#urX2luz)"><g mask="url(#gX2luz)"><path d="M 100,44.480 A 44.0,44.0 0 0 0 12.000,70.000 C 12.000,108.720 57.760,122.800 100,170.320 C 142.240,122.800 188.000,108.720 188.000,70.000 A 44.0,44.0 0 0 0 100,44.480 Z" fill="#A3121C"/></g></g></g><g transform="translate(-2.40,1.92)"><g clip-path="url(#llX2luz)"><g mask="url(#gX2luz)"><path d="M 100,44.480 A 44.0,44.0 0 0 0 12.000,70.000 C 12.000,108.720 57.760,122.800 100,170.320 C 142.240,122.800 188.000,108.720 188.000,70.000 A 44.0,44.0 0 0 0 100,44.480 Z" fill="#A3121C"/></g></g></g><g transform="translate(2.40,1.92)"><g clip-path="url(#lrX2luz)"><g mask="url(#gX2luz)"><path d="M 100,44.480 A 44.0,44.0 0 0 0 12.000,70.000 C 12.000,108.720 57.760,122.800 100,170.320 C 142.240,122.800 188.000,108.720 188.000,70.000 A 44.0,44.0 0 0 0 100,44.480 Z" fill="#A3121C"/></g></g></g><g clip-path="url(#hX2luz)"><polygon points="87.50,75.00 -75.19,-290.42 275.19,-290.42 112.50,75.00 507.58,12.43 503.76,187.17 112.50,104.00 216.03,490.37 -16.03,490.37 87.50,104.00 -303.76,187.17 -307.58,12.43" fill="#D0202A"/></g></g></svg>