<svg xmlns="http://www.w3.org/2000/svg" viewBox="13.40 11.89 213.21 213.21"><path fill="#A3121C" fill-rule="evenodd" d="M119.76 69.00L119.24 67.40L118.66 65.82L118.02 64.27L117.69 63.50L116.97 61.98L116.20 60.49L115.39 59.02L114.52 57.58L113.60 56.18L112.63 54.81L111.62 53.47L110.56 52.17L109.45 50.90L108.30 49.68L107.71 49.08L106.50 47.92L105.25 46.80L103.96 45.72L102.63 44.69L101.27 43.71L99.88 42.78L98.45 41.89L96.99 41.06L95.51 40.27L94.00 39.54L92.46 38.86L91.68 38.54L90.11 37.95L88.53 37.41L86.92 36.92L85.30 36.49L83.66 36.12L82.01 35.80L80.35 35.54L79.52 35.44L78.39 35.32L112.57 108.62L26.49 91.88L26.78 93.34L26.96 94.16L27.37 95.79L27.60 96.60L27.64 98.61L27.76 100.59L27.95 102.52L28.22 104.41L28.45 105.65L28.70 106.88L28.99 108.09L29.48 109.88L29.84 111.06L30.45 112.79L31.12 114.50L31.86 116.19L32.67 117.84L33.53 119.48L34.46 121.09L35.45 122.68L36.50 124.25L37.61 125.81L38.77 127.35L39.57 128.37L40.40 129.39L41.69 130.90L43.03 132.40L44.42 133.90L46.34 135.89L47.84 137.37L49.91 139.35L52.06 141.33L54.28 143.31L56.57 145.30L58.92 147.30L61.96 149.83L65.09 152.40L112.04 132.47L96.96 178.90L99.95 181.61L102.91 184.37L105.88 187.20L108.85 190.12L111.83 193.13L114.81 196.23L117.78 199.43L120.00 201.90L122.22 199.43L125.19 196.23L128.17 193.13L131.15 190.12L134.12 187.20L137.09 184.37L140.05 181.61L143.04 178.90L127.96 132.47L174.91 152.40L178.04 149.83L181.08 147.30L183.43 145.30L185.72 143.31L187.94 141.33L190.09 139.35L192.16 137.37L193.66 135.89L195.58 133.90L196.97 132.40L198.31 130.90L199.60 129.39L200.43 128.37L201.23 127.35L202.39 125.81L203.50 124.25L204.55 122.68L205.54 121.09L206.47 119.48L207.33 117.84L208.14 116.19L208.88 114.50L209.55 112.79L210.16 111.06L210.52 109.88L211.01 108.09L211.30 106.88L211.55 105.65L211.78 104.41L212.05 102.52L212.24 100.59L212.36 98.61L212.40 96.60L212.63 95.79L213.04 94.16L213.22 93.34L213.51 91.88L127.43 108.62L161.61 35.32L160.48 35.44L159.65 35.54L157.99 35.80L156.34 36.12L154.70 36.49L153.08 36.92L151.47 37.41L149.89 37.95L148.32 38.54L147.54 38.86L146.00 39.54L144.49 40.27L143.01 41.06L141.55 41.89L140.12 42.78L138.73 43.71L137.37 44.69L136.04 45.72L134.75 46.80L133.50 47.92L132.29 49.08L131.12 50.29L129.99 51.53L128.91 52.81L127.87 54.13L126.88 55.49L125.94 56.88L125.04 58.30L124.61 59.02L123.80 60.49L123.03 61.98L122.31 63.50L121.98 64.27L121.34 65.82L121.05 66.61L120.50 68.20L120.00 69.80Z"/><path fill="#A3121C" fill-rule="evenodd" d="M67.45 35.52L66.13 35.71L64.48 36.01L62.84 36.36L61.21 36.77L60.40 37.00L58.80 37.50L57.21 38.05L55.64 38.65L54.87 38.98L54.10 39.31L52.58 40.03L51.09 40.80L49.62 41.61L48.90 42.04L47.48 42.94L46.78 43.40L45.41 44.37L44.07 45.38L43.41 45.91L42.13 46.99L40.89 48.12L40.28 48.70L39.10 49.89L37.95 51.12L37.40 51.75L36.32 53.04L35.29 54.37L34.80 55.04L33.84 56.42L32.93 57.83L32.07 59.27L31.66 60.01L30.87 61.49L30.14 63.00L29.80 63.77L29.14 65.32L28.84 66.10L28.27 67.68L27.76 69.28L27.52 70.08L27.09 71.70L26.72 73.34L26.40 74.99L26.14 76.65L26.04 77.48L25.87 79.15L25.80 79.99L25.73 81.55L95.22 95.06ZM214.25 80.83L214.13 79.15L213.96 77.48L213.86 76.65L213.60 74.99L213.45 74.17L213.10 72.52L212.70 70.89L212.24 69.28L211.99 68.47L211.73 67.68L211.16 66.10L210.54 64.54L209.86 63.00L209.50 62.24L208.74 60.75L208.34 60.01L207.51 58.55L206.62 57.12L206.16 56.42L205.20 55.04L204.20 53.70L203.68 53.04L202.60 51.75L201.48 50.50L200.32 49.29L199.72 48.70L198.50 47.55L197.23 46.44L195.93 45.38L195.27 44.87L193.91 43.88L192.52 42.94L191.82 42.48L190.38 41.61L189.65 41.20L188.17 40.41L186.66 39.67L185.13 38.98L184.36 38.65L182.79 38.05L181.20 37.50L180.40 37.24L178.79 36.77L177.16 36.36L176.34 36.18L174.70 35.85L173.87 35.71L172.55 35.52L144.78 95.06L214.27 81.55Z"/><path fill="#A3121C" fill-rule="evenodd" d="M73.91 159.53L79.07 163.70L82.57 166.57L86.12 169.52L88.76 171.75L95.75 150.25ZM151.24 171.75L154.60 168.92L158.14 165.99L161.62 163.14L166.09 159.53L144.25 150.25Z"/></svg>